<?xml version="1.0" standalone="no"?>
<!DOCTYPE svg PUBLIC "-//W3C//DTD SVG 1.1//EN" "http://www.w3.org/Graphics/SVG/1.1/DTD/svg11.dtd" >
<svg xmlns="http://www.w3.org/2000/svg" xmlns:xlink="http://www.w3.org/1999/xlink" version="1.1">
<metadata>
Created by FontForge 20161003 at Fri Dec 30 03:04:43 2016
 By www-data
Weslo Gfx 2010 Alright Reserved
</metadata>
<defs>
<font id="DevilBreezeLight" horiz-adv-x="555" >
  <font-face 
    font-family="DevilBreezeLight"
    font-weight="300"
    font-stretch="normal"
    units-per-em="1000"
    panose-1="0 0 0 0 0 0 0 0 0 0"
    ascent="750"
    descent="-250"
    x-height="749"
    cap-height="750"
    bbox="-8 -274 1142 810"
    underline-thickness="50"
    underline-position="-150"
    unicode-range="U+0020-2122"
  />
<missing-glyph horiz-adv-x="500" 
 />
    <glyph glyph-name=".notdef" horiz-adv-x="500" 
 />
    <glyph glyph-name=".null" horiz-adv-x="0" 
 />
    <glyph glyph-name="nonmarkingreturn" horiz-adv-x="458" 
d="M440 375v-202v-26v-147h-30v147v26v177v363h-3l-354 -540h315v-26h-350v26l380 577h42v-375v0z" />
    <glyph glyph-name="space" unicode=" " horiz-adv-x="500" 
 />
    <glyph glyph-name="space" unicode="&#xa0;" horiz-adv-x="500" 
 />
    <glyph glyph-name="exclam" unicode="!" horiz-adv-x="259" 
d="M115 166v574h30v-574h-30zM115 0v81h30v-81h-30z" />
    <glyph glyph-name="quotedbl" unicode="&#x22;" horiz-adv-x="333" 
d="M209 444v296h30v-296h-30zM94 444v296h30v-296h-30z" />
    <glyph glyph-name="numbersign" unicode="#" 
d="M534 431h-152l-19 -137h152l-3 -23h-151l-34 -240h-24l33 240h-143l-33 -240h-25l34 240h-151l3 23h151l19 137h-151l4 23h151l31 221h24l-31 -221h143l31 221h24l-31 -221h151zM216 431l-20 -137h143l20 137h-143z" />
    <glyph glyph-name="dollar" unicode="$" 
d="M473 225q0 -34 -13 -66.5t-36 -58.5t-55.5 -42.5t-72.5 -19.5v-95h-30v95q-38 3 -70.5 18.5t-56.5 40t-39 58t-17 72.5h30q4 -43 20.5 -73t40.5 -49.5t53 -28.5t56 -9q34 0 63 12.5t50.5 34t34 50.5t12.5 62q0 44 -15.5 72t-41.5 46t-59 29t-67 21q-22 6 -47.5 16.5
t-48 29.5t-37.5 48t-15 71q0 34 11 63t31.5 51.5t48.5 37t63 19.5v80h30v-80q42 -5 72 -21.5t49 -39t28.5 -49.5t11.5 -52h-30q-5 39 -21 64.5t-37.5 41.5t-44.5 22.5t-41 6.5q-26 0 -51 -10t-45 -28.5t-32.5 -45.5t-12.5 -60q0 -38 13.5 -62.5t36 -40t52 -25.5t61.5 -19
q19 -6 48 -16t55.5 -30.5t45.5 -54.5t19 -86z" />
    <glyph glyph-name="ampersand" unicode="&#x26;" horiz-adv-x="721" 
d="M678 -11l-185 189l-24 -47q-12 -24 -27.5 -49.5t-38.5 -46.5t-56 -34.5t-80 -13.5q-50 0 -89 18t-66.5 47t-42 66.5t-14.5 75.5q0 48 19.5 85.5t48.5 66t64 48t66 31.5l-38 41q-15 16 -27 30.5t-20 29.5t-13 32t-5 38v2q0 31 12 59t33 49.5t49.5 34t61.5 12.5
q34 0 64 -13t52.5 -35t35 -51.5t12.5 -61.5q0 -38 -14 -65t-37.5 -46.5t-54 -34.5t-63.5 -30l184 -188l125 239h33l-136 -261l192 -197zM440 593q0 25 -9.5 49t-27 42.5t-42 29.5t-54.5 11q-31 0 -55 -12t-40 -30t-24 -40t-8 -43q0 -37 16.5 -63.5t34.5 -45.5l50 -53
q41 18 71 33t49.5 32t29 38.5t9.5 51.5zM273 404q-58 -26 -94.5 -52t-57.5 -52.5t-28.5 -53.5t-7.5 -53q0 -34 12.5 -66t36.5 -57t58 -40t78 -15q56 0 96.5 27.5t76.5 101.5l27 56z" />
    <glyph glyph-name="quotesingle" unicode="'" horiz-adv-x="222" 
d="M96 444v296h30v-296h-30z" />
    <glyph glyph-name="parenleft" unicode="(" horiz-adv-x="425" 
d="M393 -274q-30 20 -65.5 46t-73.5 70q-69 80 -110 182.5t-41 216.5q0 79 21.5 155t59.5 143t91.5 121.5t117.5 92.5v-35q-53 -33 -100 -82.5t-82 -111t-55.5 -133.5t-20.5 -150t20.5 -150.5t55.5 -134t82 -111t100 -82.5v-37v0z" />
    <glyph glyph-name="parenright" unicode=")" horiz-adv-x="425" 
d="M322 238q0 -80 -21.5 -156t-59.5 -142.5t-91.5 -121.5t-117.5 -92v34q53 33 100 83t82 111.5t55.5 133.5t20.5 150t-20.5 150t-55.5 134t-82 111.5t-100 82.5v37q30 -20 65.5 -46t73.5 -70q70 -81 110.5 -183t40.5 -216z" />
    <glyph glyph-name="asterisk" unicode="*" horiz-adv-x="573" 
d="M409 506l-108 61v-123h-29v124l-106 -62l-15 25l107 62l-107 60l15 26l106 -62v123h29v-123l106 62l14 -25l-105 -61l107 -63z" />
    <glyph glyph-name="plus" unicode="+" horiz-adv-x="600" 
d="M314 236v-236h-28v236h-236v28h236v237h28v-237h236v-28h-236z" />
    <glyph glyph-name="comma" unicode="," horiz-adv-x="127" 
d="M22 0l92 88v-88h-92v0z" />
    <glyph glyph-name="hyphen" unicode="-" horiz-adv-x="266" 
d="M0 262v29h266v-29h-266z" />
    <glyph glyph-name="period" unicode="." horiz-adv-x="98" 
d="M80 2h-63v63h63v-63v0z" />
    <glyph glyph-name="slash" unicode="/" horiz-adv-x="518" 
d="M100 -100h-33l351 840h33z" />
    <glyph glyph-name="zero" unicode="0" horiz-adv-x="506" 
d="M486 231q0 -70 -27 -114.5t-64.5 -70t-76 -35.5t-62.5 -10q-32 0 -72.5 11t-76.5 37.5t-61 70.5t-25 111v280q0 52 13.5 90t34.5 64.5t47 43t51.5 25.5t48 12t35.5 3q48 0 90.5 -16.5t75 -46.5t51 -72.5t18.5 -94.5v-288zM457 519q0 36 -12 73t-37.5 66t-64 47.5
t-92.5 18.5q-39 0 -75.5 -13.5t-64 -40t-44.5 -65.5t-17 -91v-283q0 -49 17.5 -87t46 -63.5t65 -39t74.5 -13.5q27 0 62.5 9.5t67 32.5t53 62.5t21.5 98.5v288z" />
    <glyph glyph-name="one" unicode="1" horiz-adv-x="234" 
d="M183 0v720h-166v28h196v-748h-30z" />
    <glyph glyph-name="two" unicode="2" horiz-adv-x="491" 
d="M464 524q-1 -56 -29.5 -100.5t-77.5 -94.5l-296 -302h378v139h25v-139v-27h-25h-419v27l318 324q47 49 72 90.5t26 87.5v6q0 42 -14.5 76.5t-40 59.5t-59.5 39t-74 14q-36 0 -69 -13t-58.5 -39.5t-41.5 -66t-17 -93.5h-30q1 64 21.5 109t52 73.5t70 42t76.5 13.5
q45 0 83.5 -16t67 -45t45 -68.5t16.5 -86.5v-10v0z" />
    <glyph glyph-name="three" unicode="3" horiz-adv-x="481" 
d="M236 -2q-41 0 -80 15t-70.5 43.5t-51 70.5t-19.5 95h30q1 -52 19.5 -89t46.5 -61t62 -35.5t66 -11.5q44 0 79.5 15.5t60.5 41.5t38.5 61.5t13.5 74.5q0 31 -11.5 65t-36.5 63t-64.5 48t-95.5 19h-39v27h39q55 0 87 18t48.5 42t20.5 47.5t4 34.5q0 31 -10 57t-28.5 45
t-43.5 29.5t-55 10.5q-33 0 -59 -11t-44.5 -30t-29 -44.5t-12.5 -53.5h-30q3 42 19 73t40 51.5t53.5 30.5t58.5 10q33 0 63.5 -11t54 -32t38 -52.5t14.5 -72.5q0 -21 -6 -44t-18.5 -44t-31.5 -38.5t-46 -26.5v-1q46 -17 75.5 -43t46.5 -55t23 -57t6 -49q0 -51 -16.5 -92.5
t-46.5 -71.5t-71.5 -46t-90.5 -16z" />
    <glyph glyph-name="four" unicode="4" horiz-adv-x="529" 
d="M473 174h43v-27h-76v-147h-31v147h-391v26v1v0v540v36h30v-576h6h355v540v36h31v-576h33v0z" />
    <glyph glyph-name="five" unicode="5" horiz-adv-x="540" 
d="M270 503q54 0 99 -20.5t77.5 -55t50.5 -80t18 -94.5q0 -54 -20.5 -100.5t-54.5 -80t-79 -53t-94 -19.5q-35 0 -75.5 13.5t-76 41t-61.5 71t-32 103.5h30q6 -49 27 -87t51 -63.5t66 -38.5t72 -13q43 0 82.5 17.5t69.5 48t47.5 71.5t17.5 87q0 48 -18 89.5t-48 71.5
t-69 47.5t-82 17.5q-12 0 -30.5 -2.5t-41 -11t-47.5 -25.5t-49 -47l-26 7l68 352h304h25h2v-27h-2v-118h-25v118h-281l-53 -278q10 8 24.5 18t34 19t44 15t55.5 6z" />
    <glyph glyph-name="six" unicode="6" horiz-adv-x="516" 
d="M500 254q0 -51 -18 -97t-50.5 -81t-77 -55.5t-97.5 -20.5q-63 0 -108 24t-77 58q-30 36 -43 77.5t-13 83.5q0 63 20.5 106.5t42.5 75.5l221 325h34l-262 -386q-12 -26 -19 -54.5t-7 -64.5v-2q0 -42 14 -81t41 -68.5t66 -47t90 -17.5q48 0 87.5 17.5t68 48t44.5 71
t16 85.5q0 56 -19.5 98t-50 69.5t-68 41t-72.5 13.5h-14q-20 -2 -44 -8.5t-46 -17.5l8 12l-8 -12l29 41q0 1 22 7.5t51 6.5q49 0 92.5 -18t76 -51t51.5 -78.5t19 -100.5z" />
    <glyph glyph-name="seven" unicode="7" horiz-adv-x="450" 
d="M49 749h370v-28l-333 -721h-32l333 721h-338v-145h-28v145v28v0h28v0v0z" />
    <glyph glyph-name="eight" unicode="8" horiz-adv-x="480" 
d="M237 0q-45 0 -85 17t-70 46t-47.5 69t-17.5 85q0 36 11.5 69t31.5 59.5t47.5 46t60.5 30.5q-23 10 -42.5 26t-33.5 36.5t-22 44.5t-8 50q0 34 14 65t37.5 54t55.5 37t68 14t67.5 -13t55 -36t37.5 -54t14 -67q0 -26 -8 -50t-22 -44.5t-33.5 -36.5t-42.5 -26
q33 -10 60.5 -29.5t47.5 -46.5t31.5 -59.5t11.5 -69.5q0 -45 -17.5 -85t-47 -69t-69.5 -46t-85 -17zM237 408q-40 0 -75 -15t-60.5 -40.5t-40.5 -60.5t-15 -75t15 -74.5t40.5 -60t60.5 -40.5t75 -15t74.5 15t60 40.5t40.5 60t15 74.5t-15 75t-40.5 60.5t-60 40.5t-74.5 15z
M237 722q-30 0 -56.5 -11t-46 -30.5t-31 -46t-11.5 -56.5t11.5 -56.5t31 -46t46 -30.5t56.5 -11t56 11t45.5 30.5t31 46t11.5 56.5t-11.5 56.5t-31 46t-45.5 30.5t-56 11z" />
    <glyph glyph-name="nine" unicode="9" horiz-adv-x="531" 
d="M20 497q0 50 18 96t50.5 81t77 55.5t97.5 20.5q63 0 108 -24t77 -59q30 -36 43 -77.5t13 -82.5q0 -64 -20.5 -108t-41.5 -74l-221 -325h-35l262 386q13 26 19.5 54.5t6.5 64.5v2q0 42 -14 80.5t-41 68.5t-66 47.5t-90 17.5q-48 0 -88 -18t-68.5 -48.5t-44 -71
t-15.5 -85.5q0 -56 19.5 -97.5t50.5 -69.5t68 -41.5t72 -13.5h14q20 2 44.5 8t45.5 17l-8 -10l8 10l-28 -39q0 -2 -22.5 -8t-51.5 -6q-48 0 -91.5 18t-76.5 51t-52 78.5t-19 101.5z" />
    <glyph glyph-name="colon" unicode=":" horiz-adv-x="277" 
d="M124 449v81h30v-81h-30zM124 0v81h30v-81h-30z" />
    <glyph glyph-name="semicolon" unicode=";" horiz-adv-x="277" 
d="M123 449v81h30v-81h-30zM93 -72h-32l63 154h32z" />
    <glyph glyph-name="less" unicode="&#x3c;" horiz-adv-x="600" 
d="M50 235v32l500 235v-31l-467 -220l467 -220v-31z" />
    <glyph glyph-name="equal" unicode="=" horiz-adv-x="600" 
d="M50 333v28h500v-28h-500zM50 139v28h500v-28h-500z" />
    <glyph glyph-name="greater" unicode="&#x3e;" horiz-adv-x="600" 
d="M50 0v31l467 220l-467 220v31l500 -235v-32z" />
    <glyph glyph-name="question" unicode="?" horiz-adv-x="536" 
d="M467 542q0 -30 -10.5 -56t-28 -49.5t-38.5 -45t-42 -41.5q-28 -27 -43 -52t-22 -48t-8.5 -43t-1.5 -36v-5h-30q1 24 3 48.5t11 50.5t27 53.5t50 59.5q20 20 38.5 37.5t32.5 36.5t23 41t9 51v3q0 36 -13.5 67.5t-38 55t-57.5 37.5t-72 14q-29 0 -61 -9.5t-59 -30.5
t-45.5 -55t-20.5 -83h-30q3 60 26 100t55 64.5t68.5 34.5t65.5 10q42 0 80 -15t67.5 -43t47 -66.5t17.5 -85.5zM243 0v81h29v-81h-29z" />
    <glyph glyph-name="at" unicode="@" horiz-adv-x="796" 
d="M768 441q0 -74 -26.5 -127t-64 -87t-77.5 -50t-67 -16q-6 0 -19.5 1.5t-26.5 9t-23 22.5t-10 42h-2q-7 -11 -17.5 -23t-26 -23t-36 -18t-47.5 -7q-13 0 -31.5 5t-35.5 19t-29 39.5t-12 66.5q0 52 17.5 102.5t47 90t68 64t79.5 24.5q30 0 49.5 -9t31.5 -22t17.5 -27.5
t7.5 -24.5h2l23 67h28l-96 -272q-5 -13 -9 -26t-4 -27q0 -17 6 -26.5t14.5 -14.5t18 -6t16.5 -1q27 0 62.5 16t67.5 47.5t54 79t22 110.5q0 73 -28.5 127t-73.5 89.5t-101 53t-110 17.5q-72 0 -136.5 -26t-114 -74t-78.5 -114.5t-29 -147.5t29 -146t77.5 -110.5t111.5 -70.5
t130 -25q40 0 84 10t85.5 31t77 54t59.5 79h25q-23 -54 -62 -92t-84.5 -62t-94 -35t-89.5 -11q-80 0 -148.5 29.5t-119.5 80.5t-80 120t-29 148q0 80 29.5 151t81 123.5t122 83t151.5 30.5q61 0 122 -20t110 -59t80 -97.5t31 -135.5zM519 462q-1 25 -10.5 42t-23 27.5
t-28.5 14.5t-26 4q-31 0 -64 -20t-60 -54.5t-44.5 -81t-17.5 -99.5q0 -32 8 -52t20.5 -31.5t27 -16t26.5 -4.5q37 0 62.5 15t42.5 36.5t27 44t16 37.5l28 73q9 23 12.5 35t3.5 27v3z" />
    <glyph glyph-name="A" unicode="A" horiz-adv-x="636" 
d="M551 749h61v-750h-30v723h-13l-514 -723h-37l533 750v0z" />
    <glyph glyph-name="B" unicode="B" horiz-adv-x="458" 
d="M288 395q52 -15 82 -42t45 -56.5t19 -56t4 -40.5q0 -70 -31 -115.5t-88 -67.5q-23 -11 -53 -14.5t-66 -3.5h-187v28h188q29 0 56.5 3.5t50.5 12.5q43 17 71.5 54.5t28.5 100.5q0 57 -27 99.5t-75 62.5q-15 6 -28 10t-27.5 5.5t-31.5 2t-40 0.5h-166v28h166q33 0 60 4
t47 15q46 26 60 62.5t14 76.5q0 52 -23 86.5t-51 48.5q-17 10 -41.5 16.5t-72.5 6.5h-159v27h159q48 0 78.5 -7.5t53.5 -19.5q26 -14 43 -33.5t26.5 -41t13.5 -43.5t4 -43q0 -8 -1.5 -28t-11.5 -44.5t-30.5 -49t-59.5 -41.5v-3v0z" />
    <glyph glyph-name="C" unicode="C" horiz-adv-x="732" 
d="M674 574q-11 15 -34 40t-58 49t-83 41.5t-108 17.5q-72 0 -135 -26t-110 -72.5t-74 -110.5t-27 -139t27 -138.5t74 -110t110 -72.5t135 -26q64 0 113 18.5t84.5 42.5t56.5 48t29 35h32q-18 -32 -48 -62.5t-70.5 -54.5t-90 -39t-106.5 -15q-78 0 -146 28t-119 77.5
t-80.5 118.5t-29.5 150t29.5 150t80.5 119t119 78t146 28q58 0 107.5 -15.5t89 -40.5t69.5 -56.5t50 -62.5h-33z" />
    <glyph glyph-name="D" unicode="D" horiz-adv-x="646" 
d="M240 749q88 0 158 -25.5t118.5 -73.5t74 -117.5t25.5 -157.5q0 -89 -25.5 -158.5t-74 -117.5t-118.5 -73t-158 -25h-212v26h212q81 0 145.5 23.5t109 68t68.5 109t24 145.5q0 82 -23.5 147t-68 110t-109 68.5t-146.5 23.5h-212v27h212v0z" />
    <glyph glyph-name="E" unicode="E" horiz-adv-x="446" 
d="M17 1v747h411v-26h-381v-331h199v-28h-199v-336h381v-26h-411v0z" />
    <glyph glyph-name="F" unicode="F" horiz-adv-x="446" 
d="M428 722h-381v-331h201v-27h-201v-337v-26h-30v749h411v-28v0z" />
    <glyph glyph-name="G" unicode="G" horiz-adv-x="765" 
d="M745 319l-207 -292q-22 -9 -47 -15q-47 -12 -99 -12q-78 0 -146 28t-119 78t-80.5 118.5t-29.5 149.5t29.5 150t80.5 119t119 78t146 28q50 0 98.5 -12t91.5 -34.5t78.5 -54.5t60.5 -73h-35q-54 72 -129 109.5t-165 37.5q-72 0 -135 -26.5t-110 -73t-74 -110t-27 -138.5
t27 -138.5t74 -110t110 -72.5t135 -26q33 0 64.5 5.5t59.5 15.5l174 244h-378v27h433z" />
    <glyph glyph-name="H" unicode="H" horiz-adv-x="509" 
d="M256 749h235v0v-27v-721h-30v363h-419v-363h-30v748h30v-357h419v330h-205v27v0z" />
    <glyph glyph-name="I" unicode="I" horiz-adv-x="487" 
d="M471 722h-205v-694h205v-28h-205v0h-30v0h-220v28h220v694h-220v28h220h15h15h205v-28v0z" />
    <glyph glyph-name="J" unicode="J" horiz-adv-x="407" 
d="M388 748v-27v-496q0 -26 -2 -58t-16 -64q-8 -17 -19.5 -33.5t-31.5 -30.5q-26 -20 -57 -29t-60 -9q-30 0 -60 9.5t-55 29t-43 48t-25 66.5h34q10 -42 29.5 -66.5t42 -38t43.5 -17.5t34 -4h3q28 0 51 7.5t40.5 20t28.5 28t17 30.5q10 24 13 50.5t3 60.5v496h-201v27h201
h30z" />
    <glyph glyph-name="K" unicode="K" horiz-adv-x="379" 
d="M62 386l301 -386h-38l-300 385l285 363h39l-287 -362v0z" />
    <glyph glyph-name="L" unicode="L" horiz-adv-x="397" 
d="M23 0v751h31v-723h317v-28h-348v0z" />
    <glyph glyph-name="M" unicode="M" horiz-adv-x="1150" 
d="M1074 750h61v-751h-30v724h-13l-482 -681l-31 -43v0v53v671h-14l-513 -724h-37l534 751h61v-655l464 655v0z" />
    <glyph glyph-name="N" unicode="N" horiz-adv-x="636" 
d="M587 748h29v-27v-721h-38l-519 718h-3v-718h-30v748h46l512 -707h3v680h-205v27h205v0z" />
    <glyph glyph-name="O" unicode="O" horiz-adv-x="785" 
d="M391 0q-78 0 -146.5 28t-119.5 78t-80.5 119t-29.5 150q0 82 29.5 150.5t80.5 118t119.5 77.5t146.5 28t146.5 -28t119.5 -77.5t80.5 -118t29.5 -150.5q0 -81 -29.5 -150t-80.5 -119t-119.5 -78t-146.5 -28zM391 724q-72 0 -135 -26.5t-110 -73t-74.5 -110.5t-27.5 -139
t27.5 -139t74.5 -110.5t110 -72.5t135 -26t135 26t110 72.5t74.5 110.5t27.5 139t-27.5 139t-74.5 110.5t-110 73t-135 26.5z" />
    <glyph glyph-name="P" unicode="P" horiz-adv-x="474" 
d="M379 705q35 -26 55.5 -72.5t20.5 -97.5t-20.5 -97t-55.5 -70q-18 -14 -37.5 -22.5t-42 -13.5t-48.5 -7t-59 -2h-90v28h91q32 0 56.5 2t44.5 7t37 13t33 20q27 20 44 60t17 82q0 44 -17 84.5t-44 60.5q-16 12 -33 19.5t-37 12.5t-44.5 7t-56.5 2h-146v-370v-28v-131v-193
h-30v750h175q33 0 59.5 -2t48.5 -6.5t41.5 -13.5t37.5 -22z" />
    <glyph glyph-name="Q" unicode="Q" horiz-adv-x="792" 
d="M772 375q0 -94 -38.5 -169.5t-104.5 -126.5l55 -79h-32l-44 63l-16 23q10 5 21 16q60 46 95 116.5t35 156.5q0 75 -27 139t-74.5 110.5t-110.5 72.5t-135 26t-135 -26t-110 -72.5t-74 -110.5t-27 -139t27 -139t74 -110.5t110 -72.5t135 -26q46 0 86.5 10t78.5 30l16 -23
q-41 -21 -86 -32.5t-95 -11.5q-78 0 -146 28t-119 78t-80.5 119t-29.5 150t29.5 150t80.5 119t119 78t146 28t146.5 -28t119.5 -78t80.5 -119t29.5 -150z" />
    <glyph glyph-name="R" unicode="R" horiz-adv-x="544" 
d="M515 514q0 -35 -12 -75t-38.5 -74t-68.5 -57t-102 -24l-30 -1l202 -283h-39l-220 311h47q27 0 49 1.5t42 6.5t38 14t37 25q35 38 49.5 76.5t14.5 83.5q0 24 -6 49t-17 48t-28 43t-38 34q-34 22 -78.5 26t-109.5 4h-142h-30v28h172q43 0 74.5 -2t54.5 -6t39.5 -10
t30.5 -14q22 -11 42 -31.5t34.5 -47t23 -57.5t9.5 -64v-4v0z" />
    <glyph glyph-name="S" unicode="S" horiz-adv-x="465" 
d="M234 0q-33 0 -68 11.5t-65.5 35.5t-51.5 61t-25 88h29q7 -52 28 -84.5t47.5 -51t55 -25.5t49.5 -7q34 0 67 12t58.5 34.5t41 54.5t15.5 71q0 49 -19 81t-47 51.5t-60.5 29.5t-58.5 17q-24 6 -56.5 16.5t-62 30t-50.5 52t-21 83.5v3q0 44 16.5 78.5t43.5 58.5t62.5 36.5
t74.5 12.5q32 0 63 -9.5t56.5 -30t44 -52t24.5 -76.5h-29q-4 21 -13.5 46t-27.5 46t-47 35t-73 14q-35 0 -65 -11t-52.5 -32t-35.5 -50t-13 -65q0 -42 16.5 -70t44 -46.5t63 -30t73.5 -21.5q8 -2 25 -6.5t36.5 -13t40.5 -22t38 -34t28 -50t11 -68.5q0 -45 -18 -82t-47.5 -64
t-67.5 -42t-78 -15z" />
    <glyph glyph-name="T" unicode="T" horiz-adv-x="275" 
d="M25 749h234v-28h-203v-721h-31v721v28v0z" />
    <glyph glyph-name="U" unicode="U" horiz-adv-x="579" 
d="M565 750v-27v-349v-113v-4v-229v-3v-25h-22h-7h-193h-97h-3h-3q-37 0 -72.5 12t-62.5 32q-33 22 -51.5 51t-27.5 60t-10 61t0 54v480h32v-480q0 -26 0.5 -48.5t4.5 -43t13 -41t25 -43.5q25 -31 65 -48.5t84 -17.5h3h3h83h20h98h49h40v14v69v14v145v165v288h-207v27h207
h29z" />
    <glyph glyph-name="V" unicode="V" horiz-adv-x="636" 
d="M576 750h37l-534 -750h-61v723v27h31h205v-27h-205v-697h12l515 724v0z" />
    <glyph glyph-name="W" unicode="W" horiz-adv-x="1158" 
d="M82 0h-61v750h30v-722h13l484 679l30 43v0v-53v-669h13l514 722h37l-533 -750h-61v654l-466 -654v0z" />
    <glyph glyph-name="X" unicode="X" horiz-adv-x="586" 
d="M527 1l-239 354l-238 -354h-33l255 380l-245 368h36l225 -339l228 339h35l-245 -368l256 -380h-35v0z" />
    <glyph glyph-name="Y" unicode="Y" horiz-adv-x="461" 
d="M414 749h30v-28v-522v-53v-119v-26h-30v26v162l-379 532l-21 28h39l361 -507v507v0z" />
    <glyph glyph-name="Z" unicode="Z" horiz-adv-x="503" 
d="M457 29v207h27v-207v-28h-27h-425l408 723h-394v-208h-28v208v26h28h444l-408 -721h375v0z" />
    <glyph glyph-name="bracketleft" unicode="[" horiz-adv-x="425" 
d="M344 -272q-88 42 -127 105.5t-39 151.5v510q0 18 2.5 49.5t18 68t49.5 73.5t96 67v-36q-73 -36 -103.5 -93t-30.5 -129v-510q0 -19 3 -47t16 -59t40 -61t75 -54v-36v0z" />
    <glyph glyph-name="backslash" unicode="\" horiz-adv-x="518" 
d="M418 -100l-351 840h33l351 -840h-33z" />
    <glyph glyph-name="bracketright" unicode="]" horiz-adv-x="425" 
d="M247 -15q0 -18 -2.5 -49.5t-18 -67.5t-49.5 -73t-96 -67v36q73 36 103.5 92.5t30.5 128.5v510q0 19 -3 47.5t-16 59.5t-40 61t-75 54v36q88 -43 127 -106.5t39 -151.5v-510v0z" />
    <glyph glyph-name="asciicircum" unicode="^" horiz-adv-x="600" 
d="M456 375l-156 332l-156 -332h-32l172 365h32l172 -365h-32z" />
    <glyph glyph-name="underscore" unicode="_" horiz-adv-x="500" 
d="M0 -125v50h500v-50h-500z" />
    <glyph glyph-name="grave" unicode="`" 
d="M382 605l-238 138l14 23l237 -138z" />
    <glyph glyph-name="a" unicode="a" horiz-adv-x="642" 
d="M20 750h61l532 -750h-37l-181 255h-345v-255h-30v750zM50 723v-442h326l-313 442h-13z" />
    <glyph glyph-name="b" unicode="b" horiz-adv-x="465" 
d="M295 397q51 -15 81 -42t45.5 -56.5t20 -56.5t4.5 -41q0 -70 -32 -115.5t-87 -68.5q-24 -10 -54 -13.5t-65 -3.5h-159v28h159q30 0 57.5 3.5t50.5 11.5q43 18 71.5 56t28.5 101q0 56 -28 98t-74 62q-15 7 -28.5 11t-28.5 6t-32 2.5t-40 0.5h-136v26h136q70 0 107 20
q48 27 62 63.5t14 76.5q0 51 -23.5 86t-52.5 49q-16 9 -40 16t-74 7h-129v26h129q48 0 78.5 -7.5t53.5 -18.5q26 -14 43 -33.5t27.5 -41t14.5 -44.5t4 -44q0 -7 -1.5 -27t-11.5 -44.5t-31 -49t-60 -41.5v-2zM49 28v-28h-30v750h30v-26v-318v-26v-352z" />
    <glyph glyph-name="c" unicode="c" horiz-adv-x="577" 
d="M401 725q-72 0 -135 -26.5t-110 -73.5t-74 -111t-27 -139t27 -139t74 -110.5t110 -73t135 -26.5h151v-26h-151q-78 0 -146.5 28t-119.5 78.5t-80.5 119t-29.5 149.5q0 82 29.5 150.5t80.5 118.5t119.5 78t146.5 28h151v-25h-151z" />
    <glyph glyph-name="d" unicode="d" horiz-adv-x="625" 
d="M228 0h-211v750h211q89 0 159 -25.5t119 -73.5t74.5 -118t25.5 -159q0 -88 -25.5 -157.5t-74.5 -117.5t-119 -73.5t-159 -25.5zM228 722h-182v-696h182q81 0 145.5 23.5t109.5 68t69 109t24 146.5t-23.5 147t-68 110t-109.5 68.5t-147 23.5z" />
    <glyph glyph-name="e" unicode="e" horiz-adv-x="446" 
d="M17 1v747h411v-26h-381v-331h199v-28h-199v-336h381v-26h-411v0z" />
    <glyph glyph-name="f" unicode="f" horiz-adv-x="446" 
d="M428 722h-381v-331h201v-27h-201v-337v-26h-30v749h411v-28v0z" />
    <glyph glyph-name="g" unicode="g" horiz-adv-x="765" 
d="M745 319l-207 -292q-22 -9 -47 -15q-47 -12 -99 -12q-78 0 -146 28t-119 78t-80.5 118.5t-29.5 149.5t29.5 150t80.5 119t119 78t146 28q50 0 98.5 -12t91.5 -34.5t78.5 -54.5t60.5 -73h-35q-54 72 -129 109.5t-165 37.5q-72 0 -135 -26.5t-110 -73t-74 -110t-27 -138.5
t27 -138.5t74 -110t110 -72.5t135 -26q33 0 64.5 5.5t59.5 15.5l174 244h-378v27h433z" />
    <glyph glyph-name="h" unicode="h" horiz-adv-x="523" 
d="M469 0v363h-421v-363h-30v750h30v-359h421v359h30v-750h-30v0z" />
    <glyph glyph-name="i" unicode="i" horiz-adv-x="69" 
d="M20 0v750h30v-750h-30v0z" />
    <glyph glyph-name="j" unicode="j" horiz-adv-x="407" 
d="M388 748v-27v-496q0 -26 -2 -58t-16 -64q-8 -17 -19.5 -33.5t-31.5 -30.5q-26 -20 -57 -29t-60 -9q-30 0 -60 9.5t-55 29t-43 48t-25 66.5h34q10 -42 29.5 -66.5t42 -38t43.5 -17.5t34 -4h3q28 0 51 7.5t40.5 20t28.5 28t17 30.5q10 24 13 50.5t3 60.5v496h-201v27h201
h30z" />
    <glyph glyph-name="k" unicode="k" horiz-adv-x="491" 
d="M12 0v749h30v-749h-30zM167 386l303 -386h-39l-301 385l287 364h38z" />
    <glyph glyph-name="l" unicode="l" horiz-adv-x="397" 
d="M23 0v751h31v-723h317v-28h-348v0z" />
    <glyph glyph-name="m" unicode="m" horiz-adv-x="1156" 
d="M79 749l464 -654v654h60l532 -749h-37l-512 722h-14v-669v-53v0l-29 43l-482 679h-13v-722h-30v749h61v0z" />
    <glyph glyph-name="n" unicode="n" horiz-adv-x="621" 
d="M570 0l-521 719h-3v-719h-30v750h46l514 -710h3v710h30v-750h-39v0z" />
    <glyph glyph-name="o" unicode="o" horiz-adv-x="785" 
d="M391 0q-78 0 -146.5 28t-119.5 78t-80.5 119t-29.5 150q0 82 29.5 150.5t80.5 118t119.5 77.5t146.5 28t146.5 -28t119.5 -77.5t80.5 -118t29.5 -150.5q0 -81 -29.5 -150t-80.5 -119t-119.5 -78t-146.5 -28zM391 724q-72 0 -135 -26.5t-110 -73t-74.5 -110.5t-27.5 -139
t27.5 -139t74.5 -110.5t110 -72.5t135 -26t135 26t110 72.5t74.5 110.5t27.5 139t-27.5 139t-74.5 110.5t-110 73t-135 26.5z" />
    <glyph glyph-name="p" unicode="p" horiz-adv-x="474" 
d="M379 705q35 -26 55.5 -72.5t20.5 -97.5t-20.5 -97t-55.5 -70q-18 -14 -37.5 -22.5t-42 -13.5t-48.5 -7t-59 -2h-90v28h91q32 0 56.5 2t44.5 7t37 13t33 20q27 20 44 60t17 82q0 44 -17 84.5t-44 60.5q-16 12 -33 19.5t-37 12.5t-44.5 7t-56.5 2h-146v-370v-28v-131v-193
h-30v750h175q33 0 59.5 -2t48.5 -6.5t41.5 -13.5t37.5 -22z" />
    <glyph glyph-name="q" unicode="q" horiz-adv-x="792" 
d="M772 375q0 -94 -38.5 -169.5t-104.5 -126.5l55 -79h-32l-44 63l-16 23q10 5 21 16q60 46 95 116.5t35 156.5q0 75 -27 139t-74.5 110.5t-110.5 72.5t-135 26t-135 -26t-110 -72.5t-74 -110.5t-27 -139t27 -139t74 -110.5t110 -72.5t135 -26q46 0 86.5 10t78.5 30l16 -23
q-41 -21 -86 -32.5t-95 -11.5q-78 0 -146 28t-119 78t-80.5 119t-29.5 150t29.5 150t80.5 119t119 78t146 28t146.5 -28t119.5 -78t80.5 -119t29.5 -150z" />
    <glyph glyph-name="r" unicode="r" horiz-adv-x="513" 
d="M277 284l-31 -2l203 -282h-39l-220 310h47q26 0 48.5 1.5t42 6.5t38 14.5t37.5 24.5q35 38 49.5 77t14.5 84q0 49 -23 97.5t-66 76.5q-35 22 -78.5 26.5t-109.5 4.5h-142v-723h-30v749h172q43 0 74.5 -2t54.5 -6t39.5 -10t30.5 -13q22 -12 42 -32.5t34.5 -46.5t23 -57
t8.5 -63v-5q0 -35 -12 -74.5t-38.5 -73.5t-68 -57.5t-101.5 -24.5z" />
    <glyph glyph-name="s" unicode="s" horiz-adv-x="456" 
d="M251 396q9 -2 26 -6t37 -12t40.5 -22t37.5 -35t28 -50t11 -69q0 -45 -17.5 -82t-47 -63.5t-67.5 -41.5t-78 -15h-2h-193v25h193q34 0 67.5 12.5t59 35t41.5 54t16 70.5q0 50 -19 82.5t-47.5 52t-61 29.5t-58.5 16q-24 7 -57 17.5t-62.5 30t-50 52t-21.5 84.5v3
q0 44 16 78.5t43 58t62 36t74 13.5h210v-28h-210q-34 0 -64 -11t-52 -31.5t-35 -49.5t-13 -64q0 -43 16 -71t43 -46.5t62 -30.5t73 -22z" />
    <glyph glyph-name="t" unicode="t" horiz-adv-x="476" 
d="M251 723v-723h-30v723h-204v28h438v-28h-204v0z" />
    <glyph glyph-name="u" unicode="u" horiz-adv-x="584" 
d="M567 260v-3v-229v-3v-25h-22h-5h-194h-97h-2h-3q-38 0 -73.5 12t-62.5 34q-33 22 -51.5 50.5t-27 59t-9.5 60.5t0 55v479h32v-479q0 -27 0.5 -49.5t4.5 -43t12.5 -41t24.5 -42.5q26 -32 66 -49.5t84 -17.5h3h2h83h20h99h47h42v13v70v13v147v163v316h27v-377v-113z" />
    <glyph glyph-name="v" unicode="v" horiz-adv-x="631" 
d="M54 750l514 -723h13v695v28h30v-28v-721h-61l-533 749h37v0z" />
    <glyph glyph-name="w" unicode="w" horiz-adv-x="1155" 
d="M1076 0l-466 654v-654h-61l-533 750h37l514 -722h13v669v53v0l30 -43l484 -679h13v722h30v-750h-61v0z" />
    <glyph glyph-name="x" unicode="x" horiz-adv-x="586" 
d="M527 1l-239 354l-238 -354h-33l255 380l-245 368h36l225 -339l228 339h35l-245 -368l256 -380h-35v0z" />
    <glyph glyph-name="y" unicode="y" horiz-adv-x="576" 
d="M305 258v-258h-29v258l-251 491h34l231 -456l230 456h36z" />
    <glyph glyph-name="z" unicode="z" horiz-adv-x="533" 
d="M31 0l410 723h-423v26h473l-410 -721h430v-28h-480z" />
    <glyph glyph-name="braceleft" unicode="{" horiz-adv-x="425" 
d="M278 -272q-48 0 -65 30.5t-17 95.5v183q0 69 -16 115t-65 71v28q36 9 58.5 61.5t22.5 130.5v187q0 64 17 93.5t65 29.5h66v-26h-54q-20 0 -32 -5t-19 -17.5t-9 -35t-2 -57.5v-185q0 -25 -4.5 -53t-14.5 -54.5t-25 -48.5t-37 -34q37 -17 59 -68t22 -115v-183
q0 -38 2.5 -61t9.5 -35.5t19 -16.5t31 -4h54v-26h-66z" />
    <glyph glyph-name="bar" unicode="|" 
d="M263 -100v840h30v-840h-30z" />
    <glyph glyph-name="braceright" unicode="}" horiz-adv-x="425" 
d="M310 223q-25 -12 -40.5 -30t-24.5 -41t-12.5 -52t-3.5 -63v-183q0 -65 -17 -95.5t-65 -30.5h-66v26h54q19 0 31 4t19 16.5t9.5 35.5t2.5 61v183q0 32 5.5 61.5t16 53.5t25.5 42t34 26q-22 12 -37.5 34t-25 48.5t-14 54.5t-4.5 53v185q0 35 -2 57.5t-9 35t-19 17.5t-32 5
h-54v26h66q48 0 65 -29.5t17 -93.5v-187q0 -78 22.5 -130.5t58.5 -61.5v-28v0z" />
    <glyph glyph-name="asciitilde" unicode="~" horiz-adv-x="600" 
d="M523 271q-18 -33 -44.5 -52t-54.5 -19q-29 0 -57 11t-57 25t-58 25t-54 12h-5q-25 0 -50 -12t-48 -50l-19 18q19 35 50 53.5t66 18.5h6q30 -2 59.5 -13t58.5 -24q29 -14 56 -25t50 -11q29 0 48.5 20t33.5 42l19 -19v0z" />
    <glyph glyph-name="exclamdown" unicode="&#xa1;" horiz-adv-x="259" 
d="M115 450v81h30v-81h-30zM115 -209v574h30v-574h-30z" />
    <glyph glyph-name="cent" unicode="&#xa2;" 
d="M488 265q-20 -38 -45.5 -61t-51.5 -35.5t-48.5 -16.5t-35.5 -5v-108h-30v108q-54 3 -93 25t-65 54t-38.5 70t-12.5 73q0 34 11.5 71.5t36.5 69.5t65 54.5t96 27.5v95h30v-96q21 -3 45.5 -8.5t48.5 -19t46 -36t40 -58.5h-33q-17 31 -38.5 49.5t-44 28.5t-43.5 13t-37 3
q-45 0 -81 -15.5t-60.5 -42t-38 -61t-13.5 -72.5q0 -37 12 -72t36 -62.5t60 -44.5t84 -17q36 0 63.5 9.5t48 23t33.5 29t19 27.5h34v0z" />
    <glyph glyph-name="sterling" unicode="&#xa3;" 
d="M545 200q0 -27 -6 -50.5t-15 -42.5t-19.5 -32.5t-19.5 -21.5q-18 -16 -34 -26.5t-36 -16.5t-46 -8t-63 -2h-270v27h148q4 6 12 17.5t16.5 29t15 41.5t6.5 56q0 61 -30 106t-86 89h-112v27h86q-14 18 -27.5 49t-13.5 73q0 50 17.5 93t49 75t75.5 50.5t96 18.5q38 0 75 -12
t68 -35t54.5 -57t34.5 -79h-31q-10 34 -29 62.5t-45 49.5t-57.5 32.5t-67.5 11.5h-2q-45 0 -83 -15.5t-65.5 -43t-43 -66t-16.5 -85.5v-3q0 -25 10.5 -56t39.5 -63h273v-27h-244v-2q14 -10 32 -27.5t34 -41.5t27 -55t11 -68q0 -7 -0.5 -20.5t-5 -32.5t-13.5 -42.5t-26 -49.5
h92q34 0 57.5 3t40.5 8.5t29.5 14t23.5 19.5q31 32 42 65t11 62q0 18 -2.5 29.5t-4.5 20.5h31q2 -11 4 -20t2 -29z" />
    <glyph glyph-name="currency" unicode="&#xa4;" 
d="M416 181q-30 -24 -65.5 -37.5t-73.5 -13.5q-39 0 -74.5 14t-64.5 37l-77 -76l-20 21l77 77q-56 62 -56 140q0 40 14 75t40 63l-77 77l21 21l77 -77q62 54 140 54q39 0 75 -13.5t65 -39.5l76 76l22 -21l-76 -77q25 -28 39 -62.5t14 -75.5q0 -40 -14.5 -75.5t-41.5 -64.5
l77 -77l-21 -21zM92 342q0 -38 15.5 -71t41 -57.5t59 -39t69.5 -14.5q37 0 70.5 14.5t59 39t40.5 58t15 71.5q0 39 -15 72t-40.5 58t-59 39t-70.5 14q-36 0 -69.5 -14t-59 -38.5t-41 -58t-15.5 -72.5v-1z" />
    <glyph glyph-name="yen" unicode="&#xa5;" 
d="M320 409h189v-26h-205l-13 -26v-82h218v-26h-218v-249h-30v249h-214v26h214v82l-14 26h-200v26h185l-200 331h32l212 -350l216 350h32z" />
    <glyph glyph-name="brokenbar" unicode="&#xa6;" 
d="M263 404v336h30v-336h-30zM263 -100v336h30v-336h-30z" />
    <glyph glyph-name="section" unicode="&#xa7;" horiz-adv-x="573" 
d="M513 235q0 -48 -26 -89t-69 -66q23 -16 36.5 -33t21 -33.5t10 -32t2.5 -28.5q0 -38 -14.5 -70t-41 -55.5t-63 -37t-80.5 -13.5q-4 0 -21.5 1t-41 6t-50 17t-48.5 33t-36.5 54t-14.5 81v32h28v-31q0 -44 15.5 -75t41.5 -50.5t58.5 -28.5t67.5 -9q38 0 70 10.5t54.5 30
t35 46.5t12.5 59q0 36 -22.5 68t-81.5 59l-195 90q-9 4 -26 13.5t-33.5 27t-29 45t-12.5 68.5q0 20 6 41.5t18 41.5t31 38t46 32q-14 13 -30 38.5t-16 68.5q0 40 14 71t38 53t56.5 33.5t70.5 11.5q81 0 131.5 -43t50.5 -124h-28q-4 42 -17.5 69t-34.5 42t-47 20.5t-55 5.5
q-34 0 -62 -10t-48 -28t-30.5 -43t-10.5 -55t9.5 -51t24.5 -35t33 -24t34 -17l150 -71q10 -5 29.5 -15.5t39.5 -29t35 -45.5t15 -64zM485 233q0 30 -10.5 51.5t-26.5 36.5t-34 24.5t-34 17.5l-198 95q-41 -20 -67.5 -54t-26.5 -83q0 -42 21 -72.5t56 -47.5l225 -104
q14 6 30.5 18.5t31 30t24 40t9.5 47.5z" />
    <glyph glyph-name="dieresis" unicode="&#xa8;" 
d="M323 618v116h29v-116h-29zM203 618v116h29v-116h-29z" />
    <glyph glyph-name="copyright" unicode="&#xa9;" horiz-adv-x="800" 
d="M781 370q0 -81 -30 -151t-81.5 -121t-121 -80t-148.5 -29q-80 0 -150 28.5t-121.5 79.5t-81 121t-29.5 152q0 78 28.5 147.5t79.5 121.5t121 82t153 30q82 0 151.5 -30t120.5 -81.5t80 -121t29 -148.5zM753 370q0 73 -26.5 137.5t-73.5 113t-111.5 76.5t-141.5 28
t-142 -28.5t-112 -77t-73.5 -113t-26.5 -136.5q0 -75 27 -139.5t75 -112.5t112.5 -75.5t139.5 -27.5q74 0 138.5 27t112 75t75 113t27.5 140zM609 328q-3 -45 -21.5 -80t-46.5 -59t-63.5 -36.5t-73.5 -12.5q-39 0 -77 13.5t-68.5 41.5t-49.5 71t-19 103q0 51 15.5 94
t44 73.5t68.5 47.5t89 17q37 0 70.5 -11t59.5 -31t42.5 -47.5t20.5 -60.5h-28q-7 34 -24 57.5t-40 38.5t-50 21.5t-52 6.5q-39 0 -73.5 -14t-60 -40t-40 -64t-14.5 -87q0 -56 17.5 -95t44.5 -63t60 -35t65 -11q12 0 38.5 4t55 20.5t52.5 48.5t30 89h28z" />
    <glyph glyph-name="ordfeminine" unicode="&#xaa;" horiz-adv-x="468" 
d="M370 412v83h-2q-5 -14 -18 -31.5t-41 -35.5q-28 -17 -53 -20.5t-39 -3.5q-41 0 -74.5 14.5t-57 39t-36.5 56t-13 65.5q0 36 14 67.5t38.5 55.5t57.5 37.5t71 13.5q32 0 62 -11t52 -31q11 -11 21 -24t16 -27h2v85h28v-333h-28zM370 578q0 31 -12.5 58.5t-33.5 47.5
t-48.5 31.5t-58.5 11.5q-29 0 -56 -10t-49 -29.5t-35 -48t-13 -64.5q0 -24 10 -50t29.5 -47t48.5 -34.5t66 -13.5q34 0 62 12t48 32.5t31 47.5t11 56z" />
    <glyph glyph-name="guillemotleft" unicode="&#xab;" horiz-adv-x="351" 
d="M272 84l-112 192l112 193l19 -26l-96 -167l96 -166zM160 84l-111 192l111 193l20 -26l-96 -167l96 -166z" />
    <glyph glyph-name="logicalnot" unicode="&#xac;" horiz-adv-x="600" 
d="M522 139v194h-472v28h500v-222h-28z" />
    <glyph glyph-name="registered" unicode="&#xae;" horiz-adv-x="800" 
d="M781 370q0 -81 -30 -151t-81.5 -121t-121 -80t-148.5 -29q-80 0 -150 28.5t-121.5 79.5t-81 121t-29.5 152q0 78 28.5 147.5t79.5 121.5t121 82t153 30q82 0 151.5 -30t120.5 -81.5t80 -121t29 -148.5zM753 370q0 73 -26.5 137.5t-73.5 113t-111.5 76.5t-141.5 28
t-142 -28.5t-112 -77t-73.5 -113t-26.5 -136.5q0 -75 27 -139.5t75 -112.5t112.5 -75.5t139.5 -27.5q74 0 138.5 27t112 75t75 113t27.5 140zM550 146q-3 4 -4.5 8.5t-2.5 14.5t-2 28t-3 49q-2 23 -5.5 42t-16.5 32t-39 20t-72 7h-142v-201h-28v443h185q10 0 35 -2t51 -13
t46.5 -35t20.5 -69t-25.5 -71.5t-60.5 -36.5v-2q47 -11 61 -38t16 -62q2 -33 3.5 -53t3 -31.5t3.5 -17.5t5 -12h-29zM545 470q0 35 -15.5 54t-37 27.5t-43.5 10t-34 1.5h-152v-190h140q12 1 35.5 3t47.5 11t41.5 28t17.5 55z" />
    <glyph glyph-name="macron" unicode="&#xaf;" 
d="M99 660v30h356v-30h-356z" />
    <glyph glyph-name="degree" unicode="&#xb0;" horiz-adv-x="400" 
d="M343 566q0 -30 -11 -56t-30.5 -45.5t-45.5 -30.5t-56 -11t-56 11t-45.5 30.5t-30.5 45.5t-11 56t11 56t30.5 45.5t45.5 30.5t56 11t56 -11t45.5 -30.5t30.5 -45.5t11 -56zM315 566q0 24 -9 45t-24.5 36.5t-36.5 24.5t-45 9t-45 -9t-36.5 -24.5t-24.5 -36.5t-9 -45t9 -45
t24.5 -36.5t36.5 -24.5t45 -9t45 9t36.5 24.5t24.5 36.5t9 45z" />
    <glyph glyph-name="onequarter" unicode="&#xbc;" horiz-adv-x="700" 
d="M120 296v419h-95v25h123v-444h-28zM152 0h-29l329 740h30zM595 85v-85h-28v85h-228v21l223 338h33v-334h42v-25h-42zM567 407h-1l-193 -297h194v297z" />
    <glyph glyph-name="onehalf" unicode="&#xbd;" horiz-adv-x="730" 
d="M120 296v419h-95v25h123v-444h-28zM152 1h-29l329 740h30zM416 0v23l185 193q29 31 42 55t13 49q0 19 -5 38t-17 34.5t-31.5 25t-48.5 9.5q-45 0 -73 -30t-30 -84v-9h-28v8q1 38 13.5 64.5t31.5 43.5t42 24.5t46 7.5q57 0 92.5 -35t35.5 -97q0 -33 -17 -62t-47 -60
l-165 -173h232v-25h-271z" />
    <glyph glyph-name="threequarters" unicode="&#xbe;" horiz-adv-x="807" 
d="M318 427q0 -30 -10.5 -55.5t-29 -44t-44 -29t-55.5 -10.5q-25 0 -50 9t-44.5 26.5t-32 44t-12.5 62.5h28q1 -33 12 -55.5t27.5 -36t35.5 -19.5t36 -6q53 0 82 32t29 80q0 17 -6.5 37t-21 36.5t-37 27.5t-54.5 11h-27v25h27q32 0 50 10.5t27 24t11.5 27t2.5 18.5
q0 32 -20.5 56t-58.5 25q-36 0 -57.5 -23t-23.5 -58h-28q1 29 12 49t27 33t35 18.5t36 5.5q20 0 39 -7.5t34 -21.5t24 -33t9 -43q0 -22 -6.5 -37.5t-15.5 -26.5t-19 -18t-16 -10q37 -15 61 -48.5t24 -75.5zM279 -1h-29l329 740h30zM723 85v-85h-28v85h-228v21l223 338h33
v-334h42v-25h-42zM695 407h-1l-193 -297h194v297z" />
    <glyph glyph-name="questiondown" unicode="&#xbf;" horiz-adv-x="536" 
d="M264 449v81h29v-81h-29zM496 -13q-3 -60 -26 -100t-55 -64.5t-68.5 -34.5t-65.5 -10q-42 0 -80 15t-67.5 43t-47 66.5t-17.5 85.5q0 30 10.5 56t28 49.5t38.5 45t42 41.5q28 27 43 52t22 48t8.5 42.5t1.5 36.5v5h30q-1 -24 -3 -48.5t-11 -50.5t-27 -54t-50 -59
q-20 -20 -38.5 -38t-33 -37t-23 -41.5t-8.5 -50.5q0 -38 14 -70t38.5 -55.5t57.5 -37t71 -13.5q29 0 61 9.5t59 30.5t45.5 55t20.5 83h30z" />
    <glyph glyph-name="AE" unicode="&#xc6;" horiz-adv-x="944" 
d="M524 0v264h-315l-183 -264h-34l512 740h366v-27h-316v-327h316v-27h-316v-332h316v-27h-346zM524 722h-2l-291 -431h293v431z" />
    <glyph glyph-name="trademark" unicode="&#x2122;" horiz-adv-x="908" 
d="M811 296v405h-2l-208 -405h-16l-208 404h-2v-404h-27v444h37l208 -402l209 402h36v-444h-27zM160 716v-420h-27v420h-124l1 24h275v-24h-125z" />
    <glyph glyph-name="CR.025" horiz-adv-x="500" 
 />
    <glyph glyph-name="percent" horiz-adv-x="719" 
d="M348 590q0 -35 -12.5 -65t-34 -52t-51.5 -34t-65 -12t-65 12t-52 34t-34 52t-12 65t12 65t34 51.5t52 34t65 12.5t65 -12.5t51.5 -34t34 -51.5t12.5 -65zM146 0h-32l457 740h32zM697 150q0 -35 -12.5 -65t-34 -52t-51.5 -34t-65 -12t-65 12t-52 34t-34 52t-12 65t12 65
t34 51.5t52 34t65 12.5t65 -12.5t51.5 -34t34 -51.5t12.5 -65zM320 590q0 30 -10 55.5t-27.5 43.5t-42.5 28.5t-55 10.5t-55 -10.5t-42.5 -28.5t-27.5 -43.5t-10 -55.5t10 -55.5t27.5 -43.5t42.5 -28.5t55 -10.5t55 10.5t42.5 28.5t27.5 43.5t10 55.5zM669 150
q0 30 -10 55.5t-27.5 43.5t-42.5 28.5t-55 10.5t-55 -10.5t-42.5 -28.5t-27.5 -43.5t-10 -55.5t10 -55.5t27.5 -43.5t42.5 -28.5t55 -10.5t55 10.5t42.5 28.5t27.5 43.5t10 55.5z" />
    <glyph glyph-name="glyph15" horiz-adv-x="833" 
d="M622 127h106l-53 -54h-69q-8 -13 -19 -24q-35 -35 -85 -35q-54 0 -91 40q-36 -40 -90 -40q-50 0 -85 35q-11 11 -19 24h-70l-53 54h107v6v13h-126l-52 51h178v55v67l63 -64v-139q4 -13 15 -26q17 -17 42 -17t42 17q18 18 18 43v19v72h55h6v-25v-47v-19q0 -26 18 -43
q17 -17 42 -17q23 0 42 17q5 6 8.5 12t6.5 14v138l63 65v-67v-55h177l-52 -51h-125v-13v-6zM636 222h-5v4h15v-4h-5v-20h-5v20zM648 202v24h6l6 -17l7 17h6v-24h-5v19l-6 -19h-3l-6 19v-19h-5z" />
    <glyph glyph-name="glyph19" horiz-adv-x="140" 
d="M85 112h40v-103h-7h-27h-72v41h66v62v0z" />
    <glyph glyph-name="glyph38" horiz-adv-x="143" 
d="M29 728h-12v14h41v-14h-12v-49h-17v49v0zM65 679v63h21l12 -41l12 41h21v-63h-14v47l-14 -47h-10l-14 47l1 -47h-15v0z" />
    <glyph glyph-name="copyright.001" horiz-adv-x="800" 
d="M781 370q0 -81 -30 -151t-81.5 -121t-121 -80t-148.5 -29q-80 0 -150 28.5t-121.5 79.5t-81 121t-29.5 152q0 78 28.5 147.5t79.5 121.5t121 82t153 30q82 0 151.5 -30t120.5 -81.5t80 -121t29 -148.5zM753 370q0 73 -26.5 137.5t-73.5 113t-111.5 76.5t-141.5 28
t-142 -28.5t-112 -77t-73.5 -113t-26.5 -136.5q0 -75 27 -139.5t75 -112.5t112.5 -75.5t139.5 -27.5q74 0 138.5 27t112 75t75 113t27.5 140zM609 328q-3 -45 -21.5 -80t-46.5 -59t-63.5 -36.5t-73.5 -12.5q-39 0 -77 13.5t-68.5 41.5t-49.5 71t-19 103q0 51 15.5 94
t44 73.5t68.5 47.5t89 17q37 0 70.5 -11t59.5 -31t42.5 -47.5t20.5 -60.5h-28q-7 34 -24 57.5t-40 38.5t-50 21.5t-52 6.5q-39 0 -73.5 -14t-60 -40t-40 -64t-14.5 -87q0 -56 17.5 -95t44.5 -63t60 -35t65 -11q12 0 38.5 4t55 20.5t52.5 48.5t30 89h28z" />
    <glyph glyph-name="registered.001" horiz-adv-x="800" 
d="M781 370q0 -81 -30 -151t-81.5 -121t-121 -80t-148.5 -29q-80 0 -150 28.5t-121.5 79.5t-81 121t-29.5 152q0 78 28.5 147.5t79.5 121.5t121 82t153 30q82 0 151.5 -30t120.5 -81.5t80 -121t29 -148.5zM753 370q0 73 -26.5 137.5t-73.5 113t-111.5 76.5t-141.5 28
t-142 -28.5t-112 -77t-73.5 -113t-26.5 -136.5q0 -75 27 -139.5t75 -112.5t112.5 -75.5t139.5 -27.5q74 0 138.5 27t112 75t75 113t27.5 140zM550 146q-3 4 -4.5 8.5t-2.5 14.5t-2 28t-3 49q-2 23 -5.5 42t-16.5 32t-39 20t-72 7h-142v-201h-28v443h185q10 0 35 -2t51 -13
t46.5 -35t20.5 -69t-25.5 -71.5t-60.5 -36.5v-2q47 -11 61 -38t16 -62q2 -33 3.5 -53t3 -31.5t3.5 -17.5t5 -12h-29zM545 470q0 35 -15.5 54t-37 27.5t-43.5 10t-34 1.5h-152v-190h140q12 1 35.5 3t47.5 11t41.5 28t17.5 55z" />
    <glyph glyph-name="glyph42" horiz-adv-x="98" 
d="M51 742q15 0 25.5 -10.5t10.5 -25.5t-10.5 -25.5t-25.5 -10.5t-25.5 10.5t-10.5 25.5t10.5 25.5t25.5 10.5zM51 679q11 0 19 8t8 19t-8 19t-19 8t-19 -8t-8 -19t8 -19t19 -8zM65 687q-6 -2 -11 -2q-10 0 -16.5 5t-6.5 16q0 10 7 15t16 5q4 0 6 -0.5t5 -1.5v-10q-6 2 -7 2
q-12 0 -12 -10t11 -10q5 0 8 1v-10z" />
    <glyph glyph-name="glyph43" horiz-adv-x="132" 
d="M67 737q21 0 36 -14.5t15 -36.5q0 -20 -15 -35t-36 -15t-35.5 15t-14.5 35q0 22 14.5 36.5t35.5 14.5zM67 649q16 0 27 11t11 26q0 17 -11 27.5t-27 10.5t-26.5 -10.5t-10.5 -27.5q0 -15 10.5 -26t26.5 -11zM43 712h31q19 0 19 -13q0 -11 -12 -14q5 0 9 -6q2 -4 2.5 -8.5
t2.5 -8.5h-20q-1 2 -1.5 7t-1.5 7q-1 3 -6 3h-4v-17h-19v50zM61 690h5q8 0 8 6q0 5 -7 5h-6v-11z" />
    <glyph glyph-name="glyph111" horiz-adv-x="266" 
d="M0 262v29h266v-29h-266z" />
  </font>
</defs>
</svg>
